<svg width="25" height="24" viewBox="0 0 25 24" fill="none" xmlns="http://www.w3.org/2000/svg">
<g clip-path="url(#clip0_1316_13859)">
<path d="M22.2279 2.85003L20.9689 6.28903L23.0899 8.41103C23.2009 8.51385 23.2774 8.64842 23.3091 8.79637C23.3408 8.94432 23.326 9.09843 23.2668 9.23768C23.2077 9.37692 23.107 9.49451 22.9785 9.5744C22.85 9.65428 22.7 9.69257 22.5489 9.68403L18.8959 9.65503L17.5769 13.018C17.5142 13.1701 17.4053 13.2986 17.2656 13.3854C17.126 13.4723 16.9625 13.513 16.7984 13.502C16.6344 13.4909 16.4779 13.4286 16.3511 13.3238C16.2243 13.2191 16.1337 13.0771 16.0919 12.918L15.0089 9.07003L11.1569 7.99103C10.9979 7.94899 10.8561 7.85816 10.7515 7.73131C10.6469 7.60446 10.5846 7.44798 10.5736 7.28392C10.5626 7.11985 10.6033 6.95645 10.69 6.81672C10.7767 6.677 10.905 6.56798 11.0569 6.50503L14.4199 5.18203L14.3909 1.52903C14.3811 1.37734 14.4186 1.22634 14.4982 1.09688C14.5779 0.967413 14.6957 0.86587 14.8356 0.806271C14.9754 0.746672 15.1303 0.731956 15.2788 0.764155C15.4274 0.796354 15.5623 0.87388 15.6649 0.986029L17.7869 3.10703L21.2279 1.85003C21.3669 1.80723 21.5149 1.80313 21.6561 1.83817C21.7972 1.87322 21.9262 1.94608 22.029 2.04892C22.1319 2.15176 22.2047 2.28069 22.2398 2.42184C22.2748 2.56299 22.2707 2.71103 22.2279 2.85003Z" stroke="#FFAFCD" stroke-width="1.6" stroke-linecap="round" stroke-linejoin="round"/>
<path d="M15.0089 9.07001L0.826904 23.25" stroke="#FFAFCD" stroke-width="1.6" stroke-linecap="round" stroke-linejoin="round"/>
</g>
<defs>
<clipPath id="clip0_1316_13859">
<rect width="24" height="24" fill="white" transform="translate(0.0769043)"/>
</clipPath>
</defs>
</svg>
