<svg width="25" height="24" viewBox="0 0 25 24" fill="none" xmlns="http://www.w3.org/2000/svg">
<g clip-path="url(#clip0_1316_13544)">
<path d="M3.8269 23.2499L1.8269 20.7299C1.18382 19.9342 0.831105 18.9431 0.826904 17.9199V12.7499C0.826904 12.3521 0.98494 11.9706 1.26624 11.6893C1.54755 11.408 1.92908 11.2499 2.3269 11.2499C2.72473 11.2499 3.10626 11.408 3.38756 11.6893C3.66887 11.9706 3.8269 12.3521 3.8269 12.7499V16.6199" stroke="#FFAFCD" stroke-width="1.5" stroke-linecap="round" stroke-linejoin="round"/>
<path d="M8.3269 23.2499V20.1099C8.32867 19.2225 8.0639 18.3551 7.5669 17.6199L6.4269 15.8999C6.32811 15.7357 6.19688 15.5933 6.04123 15.4815C5.88557 15.3697 5.70875 15.2908 5.52157 15.2496C5.33439 15.2084 5.14078 15.2058 4.95256 15.242C4.76435 15.2782 4.58549 15.3523 4.4269 15.4599C4.14417 15.65 3.94047 15.9367 3.85395 16.2662C3.76743 16.5957 3.80403 16.9455 3.9569 17.2499L5.3269 19.4999" stroke="#FFAFCD" stroke-width="1.5" stroke-linecap="round" stroke-linejoin="round"/>
<path d="M20.3269 23.2499L22.3269 20.7299C22.97 19.9342 23.3227 18.9431 23.3269 17.9199V12.7499C23.3269 12.3521 23.1689 11.9706 22.8876 11.6893C22.6063 11.408 22.2247 11.2499 21.8269 11.2499C21.4291 11.2499 21.0475 11.408 20.7662 11.6893C20.4849 11.9706 20.3269 12.3521 20.3269 12.7499V16.6199" stroke="#FFAFCD" stroke-width="1.5" stroke-linecap="round" stroke-linejoin="round"/>
<path d="M15.8269 23.2499V20.1099C15.8251 19.2225 16.0899 18.3551 16.5869 17.6199L17.7269 15.8999C17.8257 15.7357 17.9569 15.5933 18.1126 15.4815C18.2682 15.3697 18.4451 15.2908 18.6322 15.2496C18.8194 15.2084 19.013 15.2058 19.2012 15.242C19.3895 15.2782 19.5683 15.3523 19.7269 15.4599C20.0096 15.65 20.2133 15.9367 20.2999 16.2662C20.3864 16.5957 20.3498 16.9455 20.1969 17.2499L18.8269 19.4999" stroke="#FFAFCD" stroke-width="1.5" stroke-linecap="round" stroke-linejoin="round"/>
<path d="M17.3269 8.24994H6.8269V1.49994C6.82949 1.30183 6.90934 1.11257 7.04944 0.972473C7.18953 0.832378 7.3788 0.752529 7.5769 0.749939H16.5769C16.775 0.752529 16.9643 0.832378 17.1044 0.972473C17.2445 1.11257 17.3243 1.30183 17.3269 1.49994V8.24994Z" stroke="#FFAFCD" stroke-width="1.5" stroke-linecap="round" stroke-linejoin="round"/>
<path d="M17.3269 8.24994H6.82692L5.82692 10.1599C5.77158 10.2747 5.74597 10.4015 5.75245 10.5287C5.75893 10.656 5.79729 10.7795 5.864 10.8881C5.93071 10.9966 6.02364 11.0866 6.13423 11.1498C6.24483 11.2131 6.36954 11.2475 6.49692 11.2499H17.6169C17.7443 11.2475 17.869 11.2131 17.9796 11.1498C18.0902 11.0866 18.1831 10.9966 18.2498 10.8881C18.3165 10.7795 18.3549 10.656 18.3614 10.5287C18.3679 10.4015 18.3423 10.2747 18.2869 10.1599L17.3269 8.24994Z" stroke="#FFAFCD" stroke-width="1.5" stroke-linecap="round" stroke-linejoin="round"/>
</g>
<defs>
<clipPath id="clip0_1316_13544">
<rect width="24" height="24" fill="white" transform="translate(0.0769043 -6.10352e-05)"/>
</clipPath>
</defs>
</svg>
